<svg xmlns="http://www.w3.org/2000/svg" width="300" height="352" viewBox="0 0 300 352"><title>Create a Gig</title><path class="hover-block" fill="#F8F7F7" d="M29 12h242c9.4 0 17 7.6 17 17v153H12V29c0-9.4 7.6-17 17-17z"/><path class="hover-price" fill="#B1D8BA" d="M231 288h20c8.3 0 15 6.7 15 15s-6.7 15-15 15h-20c-8.3 0-15-6.7-15-15s6.7-15 15-15z"/><path class="hover-frame" fill="#B3B2B2" d="M270 0H30C13.5 0 0 13.5 0 30v292c0 16.5 13.5 30 30 30h240c16.5 0 30-13.5 30-30V30c0-16.5-13.5-30-30-30zm18 322c0 9.9-8.1 18-18 18H30c-9.9 0-18-8.1-18-18V194h276v128zm0-140H12V30c0-9.9 8.1-18 18-18h240c9.9 0 18 8.1 18 18v152z"/><path class="hover-frame" fill="#B3B2B2" d="M34.5 224h145c4.1 0 7.5-3.4 7.5-7.5s-3.4-7.5-7.5-7.5h-145c-4.1 0-7.5 3.4-7.5 7.5s3.4 7.5 7.5 7.5zm0 26h95c4.1 0 7.5-3.4 7.5-7.5s-3.4-7.5-7.5-7.5h-95c-4.1 0-7.5 3.4-7.5 7.5s3.4 7.5 7.5 7.5z"/></svg>