<svg xmlns="http://www.w3.org/2000/svg" width="120" height="76"><g fill="none" fill-rule="evenodd"><path fill="#F4F4F4" d="M111.999 0H8C3.582 0 0 3.59 0 8.008v59.984C0 72.415 3.591 76 8.001 76H112c4.419 0 8.001-3.59 8.001-8.008V8.008C120 3.585 116.409 0 111.999 0Z"/><path fill="#E87E04" d="M111 76c6 0 9-3 9-9V31.336c-.001.002-17.883 31.496-82.843 44.664H111Z"/><path fill="#000" d="M39.029 36.708h1.078l3.338 4.983h.017v-4.983h.822v6.062H43.24l-3.372-4.983h-.018v4.983h-.821v-6.062Zm6.812 0h3.912v.77h-3.09v1.807h2.876v.77h-2.876V42h3.244v.77H45.84v-6.061Zm6.496.77h-1.951v-.77h4.724v.77H53.16v5.292h-.822v-5.292Zm2.876-.77h.856l1.335 4.846h.017l1.43-4.846h.94l1.43 4.846h.017l1.335-4.846h.856l-1.763 6.062h-.864l-1.473-4.95h-.017l-1.463 4.95h-.865l-1.771-6.062Zm11.785 6.216c-.462 0-.887-.081-1.275-.244a2.97 2.97 0 0 1-1.648-1.682 3.327 3.327 0 0 1-.235-1.26c0-.45.078-.87.235-1.258a2.97 2.97 0 0 1 1.648-1.683 3.265 3.265 0 0 1 1.275-.243c.462 0 .887.08 1.275.244a2.97 2.97 0 0 1 1.648 1.682c.156.388.235.808.235 1.259 0 .45-.079.87-.235 1.259a2.97 2.97 0 0 1-1.648 1.683 3.265 3.265 0 0 1-1.275.243Zm0-.77c.348 0 .662-.065.941-.193.28-.129.52-.301.72-.518.199-.217.353-.473.461-.767.109-.294.163-.606.163-.937 0-.331-.054-.644-.163-.938a2.284 2.284 0 0 0-.462-.766c-.2-.217-.44-.39-.719-.518a2.23 2.23 0 0 0-.941-.193 2.23 2.23 0 0 0-.942.193c-.28.128-.519.301-.718.518-.2.217-.354.472-.463.766a2.688 2.688 0 0 0-.162.938c0 .33.054.643.162.937a2.231 2.231 0 0 0 1.181 1.284c.28.13.594.193.942.193 0 0-.348 0 0 0Zm4.339-5.446h2.131c.388 0 .708.053.959.158.25.106.449.24.594.403.146.162.247.345.304.548.057.202.086.398.086.586a1.563 1.563 0 0 1-.398 1.049 1.686 1.686 0 0 1-.47.368c-.186.1-.393.161-.621.184l1.72 2.766h-1.027l-1.54-2.672h-.916v2.672h-.822v-6.062Zm.822 2.671h1.078c.16 0 .318-.013.475-.038.157-.026.297-.073.42-.142a.773.773 0 0 0 .295-.295.994.994 0 0 0 .11-.5.994.994 0 0 0-.11-.502.773.773 0 0 0-.296-.295 1.276 1.276 0 0 0-.419-.141 2.935 2.935 0 0 0-.475-.039h-1.078v1.952Zm4.407-2.671h.822v2.62h.068l2.68-2.62h1.146l-2.927 2.8 3.124 3.262H80.28l-2.825-3.031h-.068v3.03h-.822v-6.061ZM10.6 17.921h5.65c.945 0 1.856.146 2.734.436.877.29 1.653.733 2.328 1.327.675.594 1.215 1.34 1.62 2.239.405.898.608 1.955.608 3.17 0 1.23-.233 2.293-.699 3.191a6.83 6.83 0 0 1-1.802 2.229 7.685 7.685 0 0 1-2.45 1.316 8.557 8.557 0 0 1-2.643.436H10.6V17.921Zm4.455 12.034c.797 0 1.55-.09 2.258-.273a5.37 5.37 0 0 0 1.853-.85 4.04 4.04 0 0 0 1.245-1.5c.304-.615.456-1.36.456-2.239 0-.864-.135-1.607-.405-2.228-.27-.622-.645-1.125-1.124-1.51a4.689 4.689 0 0 0-1.701-.85 8.022 8.022 0 0 0-2.157-.274h-2.328v9.724h1.903ZM25.91 17.921h2.552v14.344h-2.552V17.921Zm12.717 3.08a2.354 2.354 0 0 0-1.083-.861 3.782 3.782 0 0 0-2.288-.172 2.336 2.336 0 0 0-.75.324 1.693 1.693 0 0 0-.536.577 1.667 1.667 0 0 0-.203.84c0 .487.169.859.506 1.115.338.257.756.48 1.256.669.5.189 1.046.371 1.64.547.594.175 1.14.418 1.64.73.5.31.918.722 1.256 1.235.337.513.506 1.195.506 2.046 0 .77-.142 1.442-.425 2.016A4.107 4.107 0 0 1 39 31.495a4.946 4.946 0 0 1-1.67.851 6.983 6.983 0 0 1-2.006.284 7.52 7.52 0 0 1-2.571-.446 4.955 4.955 0 0 1-2.127-1.5l1.924-1.863c.31.473.719.84 1.225 1.104a3.44 3.44 0 0 0 2.501.274c.297-.081.567-.203.81-.365.243-.162.439-.368.587-.618.149-.25.223-.537.223-.861 0-.527-.169-.932-.506-1.216a4.472 4.472 0 0 0-1.256-.719 20.16 20.16 0 0 0-1.64-.557 6.906 6.906 0 0 1-1.64-.72 3.99 3.99 0 0 1-1.256-1.215c-.337-.506-.506-1.185-.506-2.036 0-.743.152-1.384.456-1.924.304-.54.702-.99 1.194-1.348a5.214 5.214 0 0 1 1.691-.8 7.256 7.256 0 0 1 4.142.081c.708.23 1.346.608 1.913 1.135 0 0-.567-.527 0 0L38.626 21Zm14.438.283c-.526-.567-1.036-.945-1.529-1.134a4.126 4.126 0 0 0-1.488-.284c-.742 0-1.414.132-2.015.395a4.61 4.61 0 0 0-1.549 1.094 4.97 4.97 0 0 0-1.002 1.631 5.596 5.596 0 0 0-.355 2.006c0 .77.118 1.479.355 2.127.236.648.57 1.209 1.002 1.682.432.472.948.844 1.55 1.114.6.27 1.272.405 2.014.405a3.7 3.7 0 0 0 1.691-.415c.547-.277 1.056-.72 1.529-1.327l2.106 1.499c-.648.891-1.438 1.54-2.37 1.945a7.381 7.381 0 0 1-2.976.608c-1.107 0-2.123-.18-3.048-.537a6.953 6.953 0 0 1-2.39-1.52 6.981 6.981 0 0 1-1.569-2.36c-.378-.918-.567-1.938-.567-3.059 0-1.148.19-2.191.567-3.13a7.023 7.023 0 0 1 1.57-2.4 6.879 6.879 0 0 1 2.39-1.53c.924-.358 1.94-.537 3.047-.537.972 0 1.873.172 2.703.516.83.345 1.603.929 2.319 1.753 0 0-.716-.824 0 0l-1.985 1.458Zm19.238-3.363h2.936l3.908 10.84 4.03-10.84h2.754L80.14 32.265H77.93l-5.63-14.344Zm15.167 0h9.497v2.31h-6.945v3.525h6.58v2.31h-6.58v3.89h7.31v2.309h-9.862V17.921Zm12.373 0h4.981c.689 0 1.354.065 1.995.193a5.106 5.106 0 0 1 1.711.658c.5.31.898.73 1.195 1.256.297.527.445 1.196.445 2.006 0 1.04-.286 1.911-.86 2.613-.574.703-1.394 1.128-2.46 1.277l3.806 6.341h-3.078l-3.32-6.078h-1.864v6.078h-2.551V17.921ZM104.378 24c.364 0 .729-.017 1.093-.05a3.357 3.357 0 0 0 1.003-.244 1.71 1.71 0 0 0 .739-.587c.189-.263.283-.632.283-1.104 0-.419-.087-.757-.263-1.013a1.636 1.636 0 0 0-.688-.578 3.168 3.168 0 0 0-.942-.253 8.576 8.576 0 0 0-1.002-.06h-2.208V24h1.985Z"/><ellipse cx="64.537" cy="25.099" fill="#E87E04" rx="7.537" ry="7.541"/></g></svg>